# xmcd CD database file
#
# Track frame offsets:
#	150
#	15961
#	30745
#	43053
#	55826
#	70263
#	84393
#	97551
#	109645
#	125517
#	138565
#	151510
#
# Disc length: 2208 seconds
#
# Revision: 0
# Processed by: cddbd v1.5.2PL0 Copyright (c) Steve Scherf et al.
# Submitted via: CDex 1.70beta3
#
DISCID=87089e0c
DTITLE=Gary McFarland - Scorpio And Other Signs
DYEAR=1967
DGENRE=Jazz
TTITLE0=Take Care...Beware
TTITLE1=Whatever-Whenever
TTITLE2=Days Dipped In Dreams
TTITLE3=Trying To Find A Way
TTITLE4=No Other Way
TTITLE5=Thanks, But No Thanks
TTITLE6=Sad Eyes
TTITLE7=Long Live The King
TTITLE8=Close Your Eyes And Follow Me
TTITLE9=Can't Help Dancing
TTITLE10=Runaway Heart
TTITLE11=I Don't Need The Rain To See Rainbows
EXTD=YEAR: 1967
EXTT0=
EXTT1=
EXTT2=
EXTT3=
EXTT4=
EXTT5=
EXTT6=
EXTT7=
EXTT8=
EXTT9=
EXTT10=
EXTT11=
PLAYORDER=
